<svg xmlns="http://www.w3.org/2000/svg" xmlns:xlink="http://www.w3.org/1999/xlink" width="500" zoomAndPan="magnify" viewBox="0 0 375 374.999991" height="500" preserveAspectRatio="xMidYMid meet" version="1.0"><defs><g/><clipPath id="f2a37a0f6d"><path d="M 91 12.964844 L 283 12.964844 L 283 124 L 91 124 Z M 91 12.964844 " clip-rule="nonzero"/></clipPath><clipPath id="0356fb48d3"><path d="M 47.851562 76 L 325.351562 76 L 325.351562 309.964844 L 47.851562 309.964844 Z M 47.851562 76 " clip-rule="nonzero"/></clipPath></defs><g clip-path="url(#f2a37a0f6d)"><path fill="#38b6ff" d="M 282.625 68.421875 L 186.304688 12.964844 L 91.710938 69.667969 L 186.246094 123.820312 Z M 282.625 68.421875 " fill-opacity="1" fill-rule="nonzero"/></g><g clip-path="url(#0356fb48d3)"><path fill="#38b6ff" d="M 186.304688 156.894531 L 185.53125 238.121094 L 185.472656 241.625 L 178.988281 152.5 L 48.28125 77.09375 L 47.921875 76.914062 L 47.921875 228.382812 C 60.179688 235.09375 72.253906 242.15625 84.273438 249.222656 C 74.875 268.9375 63.273438 287.519531 54.347656 307.472656 C 79.277344 298.683594 103.609375 288.113281 128.359375 278.851562 C 133.058594 276.359375 137.402344 279.800781 141.445312 282 C 145.609375 284.492188 149.835938 286.925781 154 289.363281 L 186.304688 309.964844 L 325.042969 228.679688 L 325.101562 228.679688 L 325.28125 77.03125 C 278.816406 103.335938 232.53125 130.113281 186.304688 156.894531 Z M 266.144531 203.324219 C 262.15625 203.324219 258.707031 200.890625 257.160156 197.449219 C 256.625 196.261719 256.386719 194.953125 256.386719 193.527344 C 256.386719 188.125 260.789062 183.730469 266.203125 183.730469 C 267.332031 183.730469 268.464844 183.910156 269.476562 184.324219 C 273.28125 185.632812 275.960938 189.253906 275.960938 193.527344 C 275.902344 198.933594 271.558594 203.324219 266.144531 203.324219 Z M 266.144531 203.324219 " fill-opacity="1" fill-rule="nonzero"/></g><g fill="#24265d" fill-opacity="1"><g transform="translate(84.621188, 352.874977)"><g><path d="M 14.078125 0.644531 C 17.574219 0.644531 20.5625 -0.597656 22.726562 -2.761719 L 23.554688 0 L 28.753906 0 L 28.753906 -34.042969 L 21.761719 -34.042969 L 21.761719 -22.265625 C 19.691406 -23.875 17.066406 -24.796875 14.078125 -24.796875 C 6.902344 -24.796875 1.792969 -19.507812 1.792969 -12.097656 C 1.792969 -4.601562 6.902344 0.644531 14.078125 0.644531 Z M 8.695312 -12.097656 C 8.695312 -16.007812 11.410156 -18.816406 15.367188 -18.816406 C 19.277344 -18.816406 21.992188 -16.007812 21.992188 -12.097656 C 21.992188 -8.144531 19.277344 -5.382812 15.367188 -5.382812 C 11.410156 -5.382812 8.695312 -8.144531 8.695312 -12.097656 Z M 8.695312 -12.097656 "/></g></g></g><g fill="#24265d" fill-opacity="1"><g transform="translate(116.404367, 352.874977)"><g><path d="M 14.90625 0.644531 C 20.839844 0.644531 25.53125 -2.390625 27.648438 -7.5 L 20.5625 -7.5 C 19.414062 -5.886719 17.34375 -4.96875 15.042969 -4.96875 C 11.871094 -4.96875 9.386719 -6.761719 8.742188 -10.074219 L 28.109375 -10.074219 C 28.523438 -18.90625 23.277344 -24.796875 14.996094 -24.796875 C 7.175781 -24.796875 1.792969 -19.597656 1.792969 -12.097656 C 1.792969 -4.554688 7.128906 0.644531 14.90625 0.644531 Z M 8.785156 -14.492188 C 9.570312 -17.4375 11.960938 -19.230469 15.042969 -19.230469 C 18.265625 -19.230469 20.5625 -17.4375 21.347656 -14.492188 Z M 8.785156 -14.492188 "/></g></g></g><g fill="#24265d" fill-opacity="1"><g transform="translate(145.795755, 352.874977)"><g><path d="M 12.789062 0.644531 C 19.320312 0.644531 23.277344 -2.207031 23.277344 -6.808594 C 23.277344 -10.765625 20.335938 -13.296875 14.355469 -14.492188 C 10.214844 -15.320312 8.925781 -16.007812 8.925781 -17.480469 C 8.925781 -18.90625 10.214844 -19.734375 12.285156 -19.734375 C 14.628906 -19.734375 16.054688 -18.679688 16.195312 -16.835938 L 22.863281 -16.835938 C 22.542969 -21.945312 18.769531 -24.796875 12.328125 -24.796875 C 5.84375 -24.796875 2.164062 -22.175781 2.164062 -17.480469 C 2.164062 -13.480469 4.921875 -11.085938 11.085938 -9.984375 C 14.8125 -9.339844 16.378906 -8.371094 16.378906 -6.855469 C 16.378906 -5.429688 15.089844 -4.554688 12.882812 -4.554688 C 10.304688 -4.554688 8.742188 -5.796875 8.695312 -7.773438 L 1.839844 -7.773438 C 1.839844 -2.714844 6.164062 0.644531 12.789062 0.644531 Z M 12.789062 0.644531 "/></g></g></g><g fill="#24265d" fill-opacity="1"><g transform="translate(170.495531, 352.874977)"><g><path d="M 3.496094 0 L 10.488281 0 L 10.488281 -9.199219 L 14.261719 -9.199219 L 19.597656 0 L 27.742188 0 L 20.792969 -11.546875 C 22.082031 -12.699219 23.09375 -14.308594 23.875 -16.46875 L 26.683594 -24.152344 L 19.136719 -24.152344 L 17.4375 -18.90625 C 16.515625 -16.195312 15.226562 -15.457031 12.285156 -15.457031 L 10.488281 -15.457031 L 10.488281 -34.042969 L 3.496094 -34.042969 Z M 3.496094 0 "/></g></g></g><g fill="#24265d" fill-opacity="1"><g transform="translate(199.428243, 352.874977)"><g><path d="M 12.097656 0.367188 C 15.964844 0.367188 19 -0.875 21.164062 -3.3125 L 21.578125 0 L 24.75 0 L 24.75 -15.183594 C 24.75 -20.703125 20.5625 -24.476562 14.308594 -24.476562 C 9.109375 -24.476562 5.199219 -21.667969 4.140625 -17.066406 L 8.050781 -17.066406 C 8.832031 -19.414062 11.269531 -20.886719 14.355469 -20.886719 C 18.402344 -20.886719 20.886719 -18.632812 20.886719 -14.90625 L 20.886719 -14.03125 L 11.132812 -14.03125 C 6.164062 -14.03125 2.898438 -11.226562 2.898438 -6.902344 C 2.898438 -2.390625 6.347656 0.367188 12.097656 0.367188 Z M 6.761719 -6.945312 C 6.761719 -9.199219 8.601562 -10.628906 11.269531 -10.628906 L 20.933594 -10.628906 C 20.792969 -6.210938 17.207031 -3.082031 12.238281 -3.082031 C 8.878906 -3.082031 6.761719 -4.601562 6.761719 -6.945312 Z M 6.761719 -6.945312 "/></g></g></g><g fill="#24265d" fill-opacity="1"><g transform="translate(227.485742, 352.874977)"><g><path d="M 17.296875 0.597656 C 24.335938 0.597656 29.441406 -4.691406 29.441406 -11.960938 C 29.441406 -19.183594 24.335938 -24.476562 17.296875 -24.476562 C 13.386719 -24.476562 10.074219 -22.863281 7.914062 -20.195312 L 7.453125 -23.875 L 4.277344 -23.875 L 4.277344 9.199219 L 8.144531 9.199219 L 8.144531 -3.40625 C 10.304688 -0.921875 13.527344 0.597656 17.296875 0.597656 Z M 8.003906 -11.960938 C 8.003906 -17.113281 11.640625 -20.792969 16.792969 -20.792969 C 21.992188 -20.792969 25.578125 -17.113281 25.578125 -11.960938 C 25.578125 -6.761719 21.992188 -3.128906 16.792969 -3.128906 C 11.640625 -3.128906 8.003906 -6.761719 8.003906 -11.960938 Z M 8.003906 -11.960938 "/></g></g></g><g fill="#24265d" fill-opacity="1"><g transform="translate(258.854965, 352.874977)"><g><path d="M 17.296875 0.597656 C 24.335938 0.597656 29.441406 -4.691406 29.441406 -11.960938 C 29.441406 -19.183594 24.335938 -24.476562 17.296875 -24.476562 C 13.386719 -24.476562 10.074219 -22.863281 7.914062 -20.195312 L 7.453125 -23.875 L 4.277344 -23.875 L 4.277344 9.199219 L 8.144531 9.199219 L 8.144531 -3.40625 C 10.304688 -0.921875 13.527344 0.597656 17.296875 0.597656 Z M 8.003906 -11.960938 C 8.003906 -17.113281 11.640625 -20.792969 16.792969 -20.792969 C 21.992188 -20.792969 25.578125 -17.113281 25.578125 -11.960938 C 25.578125 -6.761719 21.992188 -3.128906 16.792969 -3.128906 C 11.640625 -3.128906 8.003906 -6.761719 8.003906 -11.960938 Z M 8.003906 -11.960938 "/></g></g></g></svg>