<svg xmlns="http://www.w3.org/2000/svg" xmlns:xlink="http://www.w3.org/1999/xlink" width="500" zoomAndPan="magnify" viewBox="0 0 375 374.999991" height="500" preserveAspectRatio="xMidYMid meet" version="1.0"><defs><clipPath id="862bbcbd5e"><path d="M 70 7.714844 L 303 7.714844 L 303 143 L 70 143 Z M 70 7.714844 " clip-rule="nonzero"/></clipPath><clipPath id="393e7ad8a5"><path d="M 16.742188 85 L 354.242188 85 L 354.242188 369.964844 L 16.742188 369.964844 Z M 16.742188 85 " clip-rule="nonzero"/></clipPath></defs><g clip-path="url(#862bbcbd5e)"><path fill="#38b6ff" d="M 302.277344 75.355469 L 185.132812 7.714844 L 70.085938 76.878906 L 185.058594 142.925781 Z M 302.277344 75.355469 " fill-opacity="1" fill-rule="nonzero"/></g><g clip-path="url(#393e7ad8a5)"><path fill="#38b6ff" d="M 185.132812 183.265625 L 184.191406 282.335938 L 184.117188 286.609375 L 176.230469 177.90625 L 17.265625 85.929688 L 16.832031 85.714844 L 16.832031 270.460938 C 31.734375 278.640625 46.425781 287.261719 61.039062 295.878906 C 49.609375 319.921875 35.5 342.589844 24.644531 366.921875 C 54.960938 356.207031 84.554688 343.316406 114.65625 332.015625 C 120.371094 328.976562 125.65625 333.175781 130.574219 335.855469 C 135.640625 338.898438 140.777344 341.867188 145.84375 344.835938 L 185.132812 369.964844 L 353.867188 270.820312 L 353.9375 270.820312 L 354.15625 85.859375 C 297.644531 117.941406 241.351562 150.601562 185.132812 183.265625 Z M 282.234375 239.898438 C 277.386719 239.898438 273.1875 236.929688 271.308594 232.726562 C 270.65625 231.277344 270.367188 229.6875 270.367188 227.949219 C 270.367188 221.359375 275.722656 216 282.304688 216 C 283.679688 216 285.054688 216.214844 286.285156 216.722656 C 290.917969 218.316406 294.171875 222.734375 294.171875 227.949219 C 294.101562 234.539062 288.820312 239.898438 282.234375 239.898438 Z M 282.234375 239.898438 " fill-opacity="1" fill-rule="nonzero"/></g></svg>